<?xml version="1.0" encoding="utf-8"?>
<?xml-stylesheet type="text/xsl" href="rss1.xsl"?>
<rss version="2.0" xmlns:atom="http://www.w3.org/2005/Atom" xmlns:content="http://purl.org/rss/1.0/modules/content/" xmlns:dc="http://purl.org/dc/elements/1.1/" xmlns:media="http://search.yahoo.com/mrss/">
<channel>
 <title>Getty</title>
 <link>http://www.gettyimg.com/</link>
 <atom:link href="http://www.gettyimg.com/" rel="self" type="application/rss+xml" />

 
                <item>
                <title><![CDATA[【Albums (lossless)】FLAC - Shania Twain - Queen of Me (Royal Edition) [FLAC 16/44.1]]]></title>
                <link><![CDATA[https://sharemania.us/threads/shania-twain-queen-of-me-royal-edition-flac-16-44-1.219883/]]></link>
                <description><![CDATA[<article>
<blockquote class="messageText SelectQuoteContainer ugc baseHtml">
<div style="text-align: center"><img src="https://i.ibb.co/q5J4Zfg/Image.png" class="bbCodeImage LbImage" alt="[​IMG]" data-url="https://i.ibb.co/q5J4Zfg/Image.png" style=""><br>
<br>
Includes *five* new tacks!<br>
<br>
<div class="ToggleTriggerAnchor bbCodeSpoilerContainer">
<button type="button" class="button bbCodeSpoilerButton ToggleTrigger Tooltip JsOnly" data-target="> .SpoilerTarget"><span>Spoiler: <span class="SpoilerTitle">Tracklist</span></span></button>
<div class="SpoilerTarget bbCodeSpoilerText">1. "Giddy Up!"<br>
2. "Brand New"<br>
3. "Waking Up Dreaming"<br>
4. "Best Friend"<br>
5. "Pretty Liar"<br>
6. "Inhale/Exhale Air"<br>
7. "Last Day Of Summer"<br>
8. "Queen Of Me"<br>
9. "Got It Good"<br>
10. "Number One"<br>
11. "Not Just A Girl"<br>
12. "The Hardest Stone"<br>
<b>13. "Bone Dry"<br>
14. "Wanted Man"<br>
15. "Inhale/Exhale Air (feat. BRELAND)"<br>
16. "Queen Of Me (Acoustic Version)"<br>
17. "Giddy Up! (Malibu Babie Remix)"</b></div>
</div><br>
<div class="ToggleTriggerAnchor bbCodeSpoilerContainer">
<button type="button" class="button bbCodeSpoilerButton ToggleTrigger Tooltip JsOnly" data-target="> .SpoilerTarget"><span>Spoiler: <span class="SpoilerTitle">MediaInfo</span></span></button>
<div class="SpoilerTarget bbCodeSpoilerText">General<br>
Complete name : D:\QOMROYAL\01 Giddy Up!.flac<br>
Format : FLAC<br>
Format/Info : Free Lossless Audio Codec<br>
File size : 21.5 MiB<br>
Duration : 2 min 42 s<br>
Overall bit rate mode : Variable<br>
Overall bit rate : 1 107 kb/s<br>
Album : Queen Of Me (Royal Edition) [Explicit]<br>
Album/Performer : Shania Twain<br>
Part : 1<br>
Part/Total : 1<br>
Track name : Giddy Up!<br>
Track name/Position : 1<br>
Track name/Total : 17<br>
Performer : Shania Twain<br>
Composer : David Stewart, Jessica Agombar, RØMANS &amp; Shania Twain<br>
Genre : Country/General<br>
Recorded date : 2023-01-04T13:00:00Z<br>
ISRC : USUM72219195<br>
Copyright : ℗© 2023 Republic Records, a division of UMG Recordings, Inc.<br>
Cover : Yes<br>
Cover type : Cover (front)<br>
Cover MIME : image/jpeg<br>
ITUNESADVISORY : 0<br>
ITUNESMEDIATYPE : 1<br>
<br>
Audio<br>
Format : FLAC<br>
Format/Info : Free Lossless Audio Codec<br>
Duration : 2 min 42 s<br>
Bit rate mode : Variable<br>
Bit rate : 1 105 kb/s<br>
Channel(s) : 2 channels<br>
Channel layout : L R<br>
Sampling rate : 44.1 kHz<br>
Bit depth : 16 bits<br>
Compression mode : Lossless<br>
Stream size : 21.4 MiB (100%)<br>
Writing library : Lavf60.4.100<br>
MD5 of the unencoded conten : 15FEAAE14134417D059A192E8F1A7490</div>
</div><br>
<div class="bbCodeBlock bbCodeVfcHH HiddenContent">
<div class="attribution type">Hidden Content:</div>
<blockquote>You must either reply or click 'Like' to see the hidden information contained here.</blockquote>
</div><a href="https://send.cm/d/QOdx" target="_blank" class="externalLink" rel="nofollow"></a>​</div>
<div class="messageTextEndMarker">&nbsp;</div>
</blockquote>
</article>]]></description>
                <author><![CDATA[defang]]></author>
                </item>

                
                <item>
                <title><![CDATA[【Albums (lossless)】FLAC - Shania Twain - Queen of Me (Royal Edition) [FLAC 16/44.1]]]></title>
                <link><![CDATA[https://sharemania.us/threads/shania-twain-queen-of-me-royal-edition-flac-16-44-1.219881/]]></link>
                <description><![CDATA[<article>
<blockquote class="messageText SelectQuoteContainer ugc baseHtml">
<div style="text-align: center"><img src="https://i.ibb.co/q5J4Zfg/Image.png" class="bbCodeImage LbImage" alt="[​IMG]" data-url="https://i.ibb.co/q5J4Zfg/Image.png" style=""><br>
<br>
Includes *five* new tacks!<br>
<br>
<div class="ToggleTriggerAnchor bbCodeSpoilerContainer">
<button type="button" class="button bbCodeSpoilerButton ToggleTrigger Tooltip JsOnly" data-target="> .SpoilerTarget"><span>Spoiler: <span class="SpoilerTitle">Tracklist</span></span></button>
<div class="SpoilerTarget bbCodeSpoilerText">1. "Giddy Up!"<br>
2. "Brand New"<br>
3. "Waking Up Dreaming"<br>
4. "Best Friend"<br>
5. "Pretty Liar"<br>
6. "Inhale/Exhale Air"<br>
7. "Last Day Of Summer"<br>
8. "Queen Of Me"<br>
9. "Got It Good"<br>
10. "Number One"<br>
11. "Not Just A Girl"<br>
12. "The Hardest Stone"<br>
<b>13. "Bone Dry"<br>
14. "Wanted Man"<br>
15. "Inhale/Exhale Air (feat. BRELAND)"<br>
16. "Queen Of Me (Acoustic Version)"<br>
17. "Giddy Up! (Malibu Babie Remix)"</b></div>
</div><br>
<div class="ToggleTriggerAnchor bbCodeSpoilerContainer">
<button type="button" class="button bbCodeSpoilerButton ToggleTrigger Tooltip JsOnly" data-target="> .SpoilerTarget"><span>Spoiler: <span class="SpoilerTitle">MediaInfo</span></span></button>
<div class="SpoilerTarget bbCodeSpoilerText">General<br>
Complete name : D:\QOMROYAL\01 Giddy Up!.flac<br>
Format : FLAC<br>
Format/Info : Free Lossless Audio Codec<br>
File size : 21.5 MiB<br>
Duration : 2 min 42 s<br>
Overall bit rate mode : Variable<br>
Overall bit rate : 1 107 kb/s<br>
Album : Queen Of Me (Royal Edition) [Explicit]<br>
Album/Performer : Shania Twain<br>
Part : 1<br>
Part/Total : 1<br>
Track name : Giddy Up!<br>
Track name/Position : 1<br>
Track name/Total : 17<br>
Performer : Shania Twain<br>
Composer : David Stewart, Jessica Agombar, RØMANS &amp; Shania Twain<br>
Genre : Country/General<br>
Recorded date : 2023-01-04T13:00:00Z<br>
ISRC : USUM72219195<br>
Copyright : ℗© 2023 Republic Records, a division of UMG Recordings, Inc.<br>
Cover : Yes<br>
Cover type : Cover (front)<br>
Cover MIME : image/jpeg<br>
ITUNESADVISORY : 0<br>
ITUNESMEDIATYPE : 1<br>
<br>
Audio<br>
Format : FLAC<br>
Format/Info : Free Lossless Audio Codec<br>
Duration : 2 min 42 s<br>
Bit rate mode : Variable<br>
Bit rate : 1 105 kb/s<br>
Channel(s) : 2 channels<br>
Channel layout : L R<br>
Sampling rate : 44.1 kHz<br>
Bit depth : 16 bits<br>
Compression mode : Lossless<br>
Stream size : 21.4 MiB (100%)<br>
Writing library : Lavf60.4.100<br>
MD5 of the unencoded conten : 15FEAAE14134417D059A192E8F1A7490</div>
</div><br>
<div class="bbCodeBlock bbCodeVfcHH HiddenContent">
<div class="attribution type">Hidden Content:</div>
<blockquote>You must either reply or click 'Like' to see the hidden information contained here.</blockquote>
</div><a href="https://send.cm/d/QOdx" target="_blank" class="externalLink" rel="nofollow"></a>​</div>
<div class="messageTextEndMarker">&nbsp;</div>
</blockquote>
</article>]]></description>
                <author><![CDATA[defang]]></author>
                </item>

                
                <item>
                <title><![CDATA[【Albums (lossless)】delete duplicate]]></title>
                <link><![CDATA[https://sharemania.us/threads/delete-duplicate.219882/]]></link>
                <description><![CDATA[<article>
<blockquote class="messageText SelectQuoteContainer ugc baseHtml">
<div style="text-align: center"><img src="https://i.ibb.co/q5J4Zfg/Image.png" class="bbCodeImage LbImage" alt="[​IMG]" data-url="https://i.ibb.co/q5J4Zfg/Image.png" style=""><br>
<br>
Includes *five* new tacks!<br>
<br>
<div class="ToggleTriggerAnchor bbCodeSpoilerContainer">
<button type="button" class="button bbCodeSpoilerButton ToggleTrigger Tooltip JsOnly" data-target="> .SpoilerTarget"><span>Spoiler: <span class="SpoilerTitle">Tracklist</span></span></button>
<div class="SpoilerTarget bbCodeSpoilerText">1. "Giddy Up!"<br>
2. "Brand New"<br>
3. "Waking Up Dreaming"<br>
4. "Best Friend"<br>
5. "Pretty Liar"<br>
6. "Inhale/Exhale Air"<br>
7. "Last Day Of Summer"<br>
8. "Queen Of Me"<br>
9. "Got It Good"<br>
10. "Number One"<br>
11. "Not Just A Girl"<br>
12. "The Hardest Stone"<br>
<b>13. "Bone Dry"<br>
14. "Wanted Man"<br>
15. "Inhale/Exhale Air (feat. BRELAND)"<br>
16. "Queen Of Me (Acoustic Version)"<br>
17. "Giddy Up! (Malibu Babie Remix)"</b></div>
</div><br>
<div class="ToggleTriggerAnchor bbCodeSpoilerContainer">
<button type="button" class="button bbCodeSpoilerButton ToggleTrigger Tooltip JsOnly" data-target="> .SpoilerTarget"><span>Spoiler: <span class="SpoilerTitle">MediaInfo</span></span></button>
<div class="SpoilerTarget bbCodeSpoilerText">General<br>
Complete name : D:\QOMROYAL\01 Giddy Up!.flac<br>
Format : FLAC<br>
Format/Info : Free Lossless Audio Codec<br>
File size : 21.5 MiB<br>
Duration : 2 min 42 s<br>
Overall bit rate mode : Variable<br>
Overall bit rate : 1 107 kb/s<br>
Album : Queen Of Me (Royal Edition) [Explicit]<br>
Album/Performer : Shania Twain<br>
Part : 1<br>
Part/Total : 1<br>
Track name : Giddy Up!<br>
Track name/Position : 1<br>
Track name/Total : 17<br>
Performer : Shania Twain<br>
Composer : David Stewart, Jessica Agombar, RØMANS &amp; Shania Twain<br>
Genre : Country/General<br>
Recorded date : 2023-01-04T13:00:00Z<br>
ISRC : USUM72219195<br>
Copyright : ℗© 2023 Republic Records, a division of UMG Recordings, Inc.<br>
Cover : Yes<br>
Cover type : Cover (front)<br>
Cover MIME : image/jpeg<br>
ITUNESADVISORY : 0<br>
ITUNESMEDIATYPE : 1<br>
<br>
Audio<br>
Format : FLAC<br>
Format/Info : Free Lossless Audio Codec<br>
Duration : 2 min 42 s<br>
Bit rate mode : Variable<br>
Bit rate : 1 105 kb/s<br>
Channel(s) : 2 channels<br>
Channel layout : L R<br>
Sampling rate : 44.1 kHz<br>
Bit depth : 16 bits<br>
Compression mode : Lossless<br>
Stream size : 21.4 MiB (100%)<br>
Writing library : Lavf60.4.100<br>
MD5 of the unencoded conten : 15FEAAE14134417D059A192E8F1A7490</div>
</div><br>
<div class="bbCodeBlock bbCodeVfcHH HiddenContent">
<div class="attribution type">Hidden Content:</div>
<blockquote>You must either reply or click 'Like' to see the hidden information contained here.</blockquote>
</div><a href="https://send.cm/d/QOdx" target="_blank" class="externalLink" rel="nofollow"></a>​</div>
<div class="messageTextEndMarker">&nbsp;</div>
</blockquote>
</article>]]></description>
                <author><![CDATA[defang]]></author>
                </item>

                </channel></rss>